<svg xmlns="http://www.w3.org/2000/svg" version="1.0" width="700.000000pt" height="700.000000pt" viewBox="0 0 700.000000 700.000000" preserveAspectRatio="xMidYMid meet">
<metadata>
Created by potrace 1.14, written by Peter Selinger 2001-2017
</metadata>
<g transform="translate(0.000000,700.000000) scale(0.100000,-0.100000)" fill="#000000" stroke="none">
<path d="M2450 6709 c-436 -29 -858 -171 -1221 -410 -68 -45 -126 -85 -129 -88 -3 -3 -39 -33 -80 -66 -89 -70 -265 -244 -341 -335 -30 -35 -59 -70 -66 -78 -66 -70 -256 -381 -326 -531 -79 -171 -184 -480 -212 -626 -21 -108 -44 -248 -49 -295 -3 -30 -9 -84 -14 -120 -9 -79 -8 -497 1 -600 12 -144 18 -186 43 -330 40 -237 90 -416 203 -725 39 -107 197 -418 280 -552 84 -136 236 -345 331 -455 30 -34 115 -124 190 -198 391 -391 836 -664 1371 -844 75 -25 149 -48 165 -50 16 -3 45 -10 64 -16 42 -12 258 -57 315 -64 22 -3 56 -8 75 -11 79 -12 110 -15 215 -22 351 -22 722 7 1030 83 55 13 111 27 125 30 14 3 91 27 172 54 274 92 533 218 778 378 291 191 532 410 787 715 44 53 162 215 215 298 227 349 394 735 500 1154 24 97 22 87 47 210 22 110 37 201 46 285 3 30 8 69 10 85 9 67 15 148 21 303 6 153 5 162 -13 163 -10 0 -402 0 -870 0 l-853 1 -1 46 c-5 216 -29 405 -76 597 -29 119 -91 316 -104 330 -5 5 -9 15 -9 22 0 12 -31 83 -82 188 -49 102 -189 341 -207 355 -4 3 -24 30 -46 60 -22 30 -42 57 -45 60 -3 3 -23 28 -44 55 -69 87 -297 308 -396 384 -251 193 -500 329 -781 424 -124 43 -276 83 -344 92 -28 4 -53 9 -56 11 -4 2 -28 6 -55 9 -27 3 -56 8 -64 10 -53 15 -357 23 -500 14z m374 -1784 c232 -50 442 -210 565 -428 28 -50 69 -152 82 -202 5 -22 12 -49 15 -60 2 -11 7 -47 10 -80 3 -33 7 -70 10 -82 l4 -21 869 1 869 2 -3 -78 c-19 -453 -134 -837 -348 -1157 -75 -112 -119 -164 -236 -280 -394 -388 -936 -550 -1476 -440 -183 37 -292 74 -450 152 -603 300 -979 910 -979 1588 0 107 8 238 18 285 64 314 195 529 406 670 105 70 239 121 345 132 28 3 52 7 55 10 6 6 205 -3 244 -12z"/>
</g>
</svg>