<svg xmlns="http://www.w3.org/2000/svg" viewBox="0 0 202 55"><title>Replay</title><path d="M101.41,48c5.85,0,10.2-3.48,11.21-8.26h-5.28a6.09,6.09,0,0,1-5.93,4c-3.61,0-6.25-2.63-6.82-7h18.25v-4c0-6.16-4.84-10.76-11.43-10.76-7,0-11.92,4.87-11.92,13S94.28,48,101.41,48Zm0-21.74c3.56,0,6,2.5,6.55,6.12H94.63c.62-3.48,3.13-6.12,6.78-6.12Z"></path><path d="M130.36,48c5.93,0,11.12-4.6,11.12-13.12s-5.19-12.86-11.12-12.86a9.47,9.47,0,0,0-8.27,4.51H122a25.78,25.78,0,0,0,.09-2.59v-1.2h-4.84V54.91h4.84V46.25c0-.93,0-1.69-.09-2.72h.09A9.26,9.26,0,0,0,130.36,48ZM129.12,26.3c4.4,0,7.31,3.44,7.31,8.62s-2.91,8.92-7.31,8.88S122,39.87,122,34.87C122,30.14,124.64,26.35,129.12,26.3Z"></path><path d="M150.64,15.07H145.8V47.32h4.84Z"></path><path d="M179.31,50.49v4.42h12.18a3.26,3.26,0,0,0,3.12-4.68L192.94,46,202,22.78h-5.37l-6.2,17.49L184.1,22.78h-5.41l11,27.71Z"></path><path d="M155.88,30.72h4.85c.31-2.77,2.46-4.42,5.77-4.42,2.82,0,4.75,1.25,4.75,3.22,0,1.61-1.1,2.59-4.71,2.59H164.6c-5.77,0-9.64,2.37-9.64,7.77,0,5.68,4.09,8.27,8.89,8.27,3.57,0,6.61-1.61,7.8-5v4.25h4.58V31c0-5.19-2.47-9-9.74-9s-10.26,3.58-10.61,8.67Zm15.5,2.37v2.82c0,5.54-2.95,8-6.73,8-3.3,0-4.63-2-4.63-4s1.15-3.48,4.67-3.48h.71c3.39,0,5.5-1.21,5.94-3.31h0Z"></path><path d="M87.71,22.78v4.93H78.53V47.33H73.67V26.65a3.84,3.84,0,0,1,3.82-3.87Z"></path><path d="M59.86,22.78h-15c0,10.22-6.67,17-14.94,17A15.15,15.15,0,0,1,15,24.38c0-5.79,3.35-9,7.48-9.19s7.48,3.4,7.48,7.59h15A22.62,22.62,0,0,0,22.45,0C10.05,0,0,10.2,0,24.38,0,41.39,13.41,55,30,55S59.86,41.39,59.86,22.78Z"></path></svg>